{
    "asset" : {
        "generator" : "Khronos glTF Blender I/O v1.6.16",
        "version" : "2.0"
    },
    "scene" : 0,
    "scenes" : [
        {
            "name" : "Scene",
            "nodes" : [
                2,
                17,
                21
            ]
        }
    ],
    "nodes" : [
        {
            "mesh" : 0,
            "name" : "Body"
        },
        {
            "mesh" : 1,
            "name" : "Head"
        },
        {
            "children" : [
                0,
                1
            ],
            "name" : "AVATAR"
        },
        {
            "name" : "EmptyEyes"
        },
        {
            "mesh" : 2,
            "name" : "Glasses"
        },
        {
            "children" : [
                3,
                4
            ],
            "name" : "_EYES"
        },
        {
            "mesh" : 3,
            "name" : "Cap"
        },
        {
            "name" : "EmptyHeadtop"
        },
        {
            "mesh" : 4,
            "name" : "Hat"
        },
        {
            "children" : [
                6,
                7,
                8
            ],
            "name" : "_HEADTOP"
        },
        {
            "name" : "EmptyMouth"
        },
        {
            "mesh" : 5,
            "name" : "Mustache"
        },
        {
            "children" : [
                10,
                11
            ],
            "name" : "_MOUTH"
        },
        {
            "mesh" : 6,
            "name" : "Bow"
        },
        {
            "name" : "EmptyNeck"
        },
        {
            "mesh" : 7,
            "name" : "Tie"
        },
        {
            "children" : [
                13,
                14,
                15
            ],
            "name" : "_NECK"
        },
        {
            "children" : [
                5,
                9,
                12,
                16
            ],
            "name" : "FEATURES"
        },
        {
            "mesh" : 8,
            "name" : "Base"
        },
        {
            "mesh" : 9,
            "name" : "Brows"
        },
        {
            "mesh" : 10,
            "name" : "Iris"
        },
        {
            "children" : [
                18,
                19,
                20
            ],
            "name" : "EYES"
        }
    ],
    "meshes" : [
        {
            "name" : "Sphere",
            "primitives" : [
                {
                    "attributes" : {
                        "POSITION" : 0,
                        "NORMAL" : 1,
                        "TEXCOORD_0" : 2
                    },
                    "indices" : 3
                }
            ]
        },
        {
            "name" : "Sphere.004",
            "primitives" : [
                {
                    "attributes" : {
                        "POSITION" : 4,
                        "NORMAL" : 5,
                        "TEXCOORD_0" : 6
                    },
                    "indices" : 7
                }
            ]
        },
        {
            "name" : "Plane",
            "primitives" : [
                {
                    "attributes" : {
                        "POSITION" : 8,
                        "NORMAL" : 9,
                        "TEXCOORD_0" : 10
                    },
                    "indices" : 11
                }
            ]
        },
        {
            "name" : "Sphere.010",
            "primitives" : [
                {
                    "attributes" : {
                        "POSITION" : 12,
                        "NORMAL" : 13,
                        "TEXCOORD_0" : 14
                    },
                    "indices" : 15
                }
            ]
        },
        {
            "name" : "Cylinder",
            "primitives" : [
                {
                    "attributes" : {
                        "POSITION" : 16,
                        "NORMAL" : 17,
                        "TEXCOORD_0" : 18
                    },
                    "indices" : 19
                }
            ]
        },
        {
            "name" : "Sphere.005",
            "primitives" : [
                {
                    "attributes" : {
                        "POSITION" : 20,
                        "NORMAL" : 21,
                        "TEXCOORD_0" : 22
                    },
                    "indices" : 23
                }
            ]
        },
        {
            "name" : "Cube.002",
            "primitives" : [
                {
                    "attributes" : {
                        "POSITION" : 24,
                        "NORMAL" : 25,
                        "TEXCOORD_0" : 26
                    },
                    "indices" : 27
                }
            ]
        },
        {
            "name" : "Cube.001",
            "primitives" : [
                {
                    "attributes" : {
                        "POSITION" : 28,
                        "NORMAL" : 29,
                        "TEXCOORD_0" : 30
                    },
                    "indices" : 31
                }
            ]
        },
        {
            "name" : "Sphere.011",
            "primitives" : [
                {
                    "attributes" : {
                        "POSITION" : 32,
                        "NORMAL" : 33,
                        "TEXCOORD_0" : 34
                    },
                    "indices" : 35
                }
            ]
        },
        {
            "name" : "Sphere.015",
            "primitives" : [
                {
                    "attributes" : {
                        "POSITION" : 36,
                        "NORMAL" : 37,
                        "TEXCOORD_0" : 38
                    },
                    "indices" : 35
                }
            ]
        },
        {
            "name" : "Sphere.013",
            "primitives" : [
                {
                    "attributes" : {
                        "POSITION" : 39,
                        "NORMAL" : 40,
                        "TEXCOORD_0" : 41
                    },
                    "indices" : 35
                }
            ]
        }
    ],
    "accessors" : [
        {
            "bufferView" : 0,
            "componentType" : 5126,
            "count" : 2795,
            "max" : [
                0.9123325347900391,
                2.6951074600219727,
                0.671684741973877
            ],
            "min" : [
                -0.9387493133544922,
                0.0005245208740234375,
                -0.671684741973877
            ],
            "type" : "VEC3"
        },
        {
            "bufferView" : 1,
            "componentType" : 5126,
            "count" : 2795,
            "type" : "VEC3"
        },
        {
            "bufferView" : 2,
            "componentType" : 5126,
            "count" : 2795,
            "type" : "VEC2"
        },
        {
            "bufferView" : 3,
            "componentType" : 5123,
            "count" : 14400,
            "type" : "SCALAR"
        },
        {
            "bufferView" : 4,
            "componentType" : 5126,
            "count" : 2236,
            "max" : [
                0.8077920079231262,
                3.7567138671875,
                0.8015496730804443
            ],
            "min" : [
                -0.799591064453125,
                2.4416685104370117,
                -0.671684741973877
            ],
            "type" : "VEC3"
        },
        {
            "bufferView" : 5,
            "componentType" : 5126,
            "count" : 2236,
            "type" : "VEC3"
        },
        {
            "bufferView" : 6,
            "componentType" : 5126,
            "count" : 2236,
            "type" : "VEC2"
        },
        {
            "bufferView" : 7,
            "componentType" : 5123,
            "count" : 11520,
            "type" : "SCALAR"
        },
        {
            "bufferView" : 8,
            "componentType" : 5126,
            "count" : 34,
            "max" : [
                0.7328987121582031,
                3.377595901489258,
                0.6966322660446167
            ],
            "min" : [
                -0.7328987121582031,
                2.9133472442626953,
                -0.3465116024017334
            ],
            "type" : "VEC3"
        },
        {
            "bufferView" : 9,
            "componentType" : 5126,
            "count" : 34,
            "type" : "VEC3"
        },
        {
            "bufferView" : 10,
            "componentType" : 5126,
            "count" : 34,
            "type" : "VEC2"
        },
        {
            "bufferView" : 11,
            "componentType" : 5123,
            "count" : 108,
            "type" : "SCALAR"
        },
        {
            "bufferView" : 12,
            "componentType" : 5126,
            "count" : 309,
            "max" : [
                0.6956782341003418,
                3.9923312664031982,
                1.2561471462249756
            ],
            "min" : [
                -0.6965386867523193,
                3.158940315246582,
                -0.6912403106689453
            ],
            "type" : "VEC3"
        },
        {
            "bufferView" : 13,
            "componentType" : 5126,
            "count" : 309,
            "type" : "VEC3"
        },
        {
            "bufferView" : 14,
            "componentType" : 5126,
            "count" : 309,
            "type" : "VEC2"
        },
        {
            "bufferView" : 15,
            "componentType" : 5123,
            "count" : 1512,
            "type" : "SCALAR"
        },
        {
            "bufferView" : 16,
            "componentType" : 5126,
            "count" : 323,
            "max" : [
                0.7999897003173828,
                4.511380195617676,
                0.7999986410140991
            ],
            "min" : [
                -0.7999897003173828,
                3.2955408096313477,
                -0.7999986410140991
            ],
            "type" : "VEC3"
        },
        {
            "bufferView" : 17,
            "componentType" : 5126,
            "count" : 323,
            "type" : "VEC3"
        },
        {
            "bufferView" : 18,
            "componentType" : 5126,
            "count" : 323,
            "type" : "VEC2"
        },
        {
            "bufferView" : 19,
            "componentType" : 5123,
            "count" : 1524,
            "type" : "SCALAR"
        },
        {
            "bufferView" : 20,
            "componentType" : 5126,
            "count" : 2795,
            "max" : [
                0.311567485332489,
                2.8526787757873535,
                0.6049761772155762
            ],
            "min" : [
                -0.2974640130996704,
                2.6205825805664062,
                0.512597382068634
            ],
            "type" : "VEC3"
        },
        {
            "bufferView" : 21,
            "componentType" : 5126,
            "count" : 2795,
            "type" : "VEC3"
        },
        {
            "bufferView" : 22,
            "componentType" : 5126,
            "count" : 2795,
            "type" : "VEC2"
        },
        {
            "bufferView" : 23,
            "componentType" : 5123,
            "count" : 14400,
            "type" : "SCALAR"
        },
        {
            "bufferView" : 24,
            "componentType" : 5126,
            "count" : 246,
            "max" : [
                0.2521265149116516,
                2.549578905105591,
                0.5443278551101685
            ],
            "min" : [
                -0.2521265149116516,
                2.3042612075805664,
                0.4019172787666321
            ],
            "type" : "VEC3"
        },
        {
            "bufferView" : 25,
            "componentType" : 5126,
            "count" : 246,
            "type" : "VEC3"
        },
        {
            "bufferView" : 26,
            "componentType" : 5126,
            "count" : 246,
            "type" : "VEC2"
        },
        {
            "bufferView" : 27,
            "componentType" : 5123,
            "count" : 1296,
            "type" : "SCALAR"
        },
        {
            "bufferView" : 28,
            "componentType" : 5126,
            "count" : 513,
            "max" : [
                0.12218952178955078,
                2.541518211364746,
                0.7219284772872925
            ],
            "min" : [
                -0.12218952178955078,
                1.6159772872924805,
                0.3853410482406616
            ],
            "type" : "VEC3"
        },
        {
            "bufferView" : 29,
            "componentType" : 5126,
            "count" : 513,
            "type" : "VEC3"
        },
        {
            "bufferView" : 30,
            "componentType" : 5126,
            "count" : 513,
            "type" : "VEC2"
        },
        {
            "bufferView" : 31,
            "componentType" : 5123,
            "count" : 2496,
            "type" : "SCALAR"
        },
        {
            "bufferView" : 32,
            "componentType" : 5126,
            "count" : 1118,
            "max" : [
                0.3712112307548523,
                3.305558681488037,
                0.6776106357574463
            ],
            "min" : [
                -0.3712112307548523,
                2.988168716430664,
                0.5579664707183838
            ],
            "type" : "VEC3"
        },
        {
            "bufferView" : 33,
            "componentType" : 5126,
            "count" : 1118,
            "type" : "VEC3"
        },
        {
            "bufferView" : 34,
            "componentType" : 5126,
            "count" : 1118,
            "type" : "VEC2"
        },
        {
            "bufferView" : 35,
            "componentType" : 5123,
            "count" : 5760,
            "type" : "SCALAR"
        },
        {
            "bufferView" : 36,
            "componentType" : 5126,
            "count" : 1118,
            "max" : [
                0.4013962149620056,
                3.4107327461242676,
                0.6043044328689575
            ],
            "min" : [
                -0.4067574739456177,
                3.317154884338379,
                0.5102930068969727
            ],
            "type" : "VEC3"
        },
        {
            "bufferView" : 37,
            "componentType" : 5126,
            "count" : 1118,
            "type" : "VEC3"
        },
        {
            "bufferView" : 38,
            "componentType" : 5126,
            "count" : 1118,
            "type" : "VEC2"
        },
        {
            "bufferView" : 39,
            "componentType" : 5126,
            "count" : 1118,
            "max" : [
                0.3580991327762604,
                3.217454671859741,
                0.6902803182601929
            ],
            "min" : [
                -0.35961663722991943,
                3.0492539405822754,
                0.6240586638450623
            ],
            "type" : "VEC3"
        },
        {
            "bufferView" : 40,
            "componentType" : 5126,
            "count" : 1118,
            "type" : "VEC3"
        },
        {
            "bufferView" : 41,
            "componentType" : 5126,
            "count" : 1118,
            "type" : "VEC2"
        }
    ],
    "bufferViews" : [
        {
            "buffer" : 0,
            "byteLength" : 33540,
            "byteOffset" : 0
        },
        {
            "buffer" : 0,
            "byteLength" : 33540,
            "byteOffset" : 33540
        },
        {
            "buffer" : 0,
            "byteLength" : 22360,
            "byteOffset" : 67080
        },
        {
            "buffer" : 0,
            "byteLength" : 28800,
            "byteOffset" : 89440
        },
        {
            "buffer" : 0,
            "byteLength" : 26832,
            "byteOffset" : 118240
        },
        {
            "buffer" : 0,
            "byteLength" : 26832,
            "byteOffset" : 145072
        },
        {
            "buffer" : 0,
            "byteLength" : 17888,
            "byteOffset" : 171904
        },
        {
            "buffer" : 0,
            "byteLength" : 23040,
            "byteOffset" : 189792
        },
        {
            "buffer" : 0,
            "byteLength" : 408,
            "byteOffset" : 212832
        },
        {
            "buffer" : 0,
            "byteLength" : 408,
            "byteOffset" : 213240
        },
        {
            "buffer" : 0,
            "byteLength" : 272,
            "byteOffset" : 213648
        },
        {
            "buffer" : 0,
            "byteLength" : 216,
            "byteOffset" : 213920
        },
        {
            "buffer" : 0,
            "byteLength" : 3708,
            "byteOffset" : 214136
        },
        {
            "buffer" : 0,
            "byteLength" : 3708,
            "byteOffset" : 217844
        },
        {
            "buffer" : 0,
            "byteLength" : 2472,
            "byteOffset" : 221552
        },
        {
            "buffer" : 0,
            "byteLength" : 3024,
            "byteOffset" : 224024
        },
        {
            "buffer" : 0,
            "byteLength" : 3876,
            "byteOffset" : 227048
        },
        {
            "buffer" : 0,
            "byteLength" : 3876,
            "byteOffset" : 230924
        },
        {
            "buffer" : 0,
            "byteLength" : 2584,
            "byteOffset" : 234800
        },
        {
            "buffer" : 0,
            "byteLength" : 3048,
            "byteOffset" : 237384
        },
        {
            "buffer" : 0,
            "byteLength" : 33540,
            "byteOffset" : 240432
        },
        {
            "buffer" : 0,
            "byteLength" : 33540,
            "byteOffset" : 273972
        },
        {
            "buffer" : 0,
            "byteLength" : 22360,
            "byteOffset" : 307512
        },
        {
            "buffer" : 0,
            "byteLength" : 28800,
            "byteOffset" : 329872
        },
        {
            "buffer" : 0,
            "byteLength" : 2952,
            "byteOffset" : 358672
        },
        {
            "buffer" : 0,
            "byteLength" : 2952,
            "byteOffset" : 361624
        },
        {
            "buffer" : 0,
            "byteLength" : 1968,
            "byteOffset" : 364576
        },
        {
            "buffer" : 0,
            "byteLength" : 2592,
            "byteOffset" : 366544
        },
        {
            "buffer" : 0,
            "byteLength" : 6156,
            "byteOffset" : 369136
        },
        {
            "buffer" : 0,
            "byteLength" : 6156,
            "byteOffset" : 375292
        },
        {
            "buffer" : 0,
            "byteLength" : 4104,
            "byteOffset" : 381448
        },
        {
            "buffer" : 0,
            "byteLength" : 4992,
            "byteOffset" : 385552
        },
        {
            "buffer" : 0,
            "byteLength" : 13416,
            "byteOffset" : 390544
        },
        {
            "buffer" : 0,
            "byteLength" : 13416,
            "byteOffset" : 403960
        },
        {
            "buffer" : 0,
            "byteLength" : 8944,
            "byteOffset" : 417376
        },
        {
            "buffer" : 0,
            "byteLength" : 11520,
            "byteOffset" : 426320
        },
        {
            "buffer" : 0,
            "byteLength" : 13416,
            "byteOffset" : 437840
        },
        {
            "buffer" : 0,
            "byteLength" : 13416,
            "byteOffset" : 451256
        },
        {
            "buffer" : 0,
            "byteLength" : 8944,
            "byteOffset" : 464672
        },
        {
            "buffer" : 0,
            "byteLength" : 13416,
            "byteOffset" : 473616
        },
        {
            "buffer" : 0,
            "byteLength" : 13416,
            "byteOffset" : 487032
        },
        {
            "buffer" : 0,
            "byteLength" : 8944,
            "byteOffset" : 500448
        }
    ],
    "buffers" : [
        {
            "byteLength" : 509392,
            "uri" : "data:application/octet-stream;base64,"
        }
    ]
}
